<?xml version="1.0" encoding="UTF-8"?>
<svg xmlns="http://www.w3.org/2000/svg" width="179" height="44" viewBox="0 0 179 44" fill="none">
  <path d="M172.267 18.8383C171.003 18.8383 169.86 18.5443 168.839 17.9564C167.818 17.3521 167.008 16.5274 166.409 15.4822C165.809 14.437 165.509 13.2529 165.509 11.9301C165.509 10.6073 165.801 9.43141 166.384 8.40253C166.984 7.37366 167.794 6.55709 168.815 5.95283C169.836 5.34857 170.986 5.04644 172.267 5.04644C173.531 5.04644 174.673 5.34857 175.694 5.95283C176.715 6.54076 177.517 7.34916 178.1 8.37804C178.7 9.40691 179 10.5909 179 11.9301C179 13.2693 178.692 14.4615 178.076 15.5067C177.46 16.5356 176.642 17.3521 175.621 17.9564C174.616 18.5443 173.498 18.8383 172.267 18.8383ZM172.267 16.6335C173.077 16.6335 173.806 16.4294 174.454 16.0211C175.119 15.6128 175.637 15.0494 176.01 14.3308C176.399 13.6122 176.593 12.812 176.593 11.9301C176.593 11.0319 176.399 10.2398 176.01 9.5539C175.637 8.85165 175.119 8.29638 174.454 7.8881C173.806 7.46348 173.077 7.25117 172.267 7.25117C171.44 7.25117 170.695 7.46348 170.03 7.8881C169.382 8.29638 168.864 8.85165 168.475 9.5539C168.086 10.2398 167.891 11.0319 167.891 11.9301C167.891 12.812 168.086 13.6122 168.475 14.3308C168.864 15.0494 169.382 15.6128 170.03 16.0211C170.695 16.4294 171.44 16.6335 172.267 16.6335Z" fill="#1C1F2A"></path>
  <path d="M155.739 18.8383C154.507 18.8383 153.397 18.5362 152.409 17.9319C151.436 17.3276 150.667 16.5029 150.1 15.4577C149.532 14.4125 149.249 13.2448 149.249 11.9546C149.249 10.6318 149.532 9.45592 150.1 8.42704C150.667 7.38184 151.436 6.5571 152.409 5.95284C153.397 5.34858 154.507 5.04645 155.739 5.04645C156.825 5.04645 157.789 5.28326 158.631 5.75686C159.474 6.21414 160.139 6.83473 160.625 7.61864L160.26 8.18207V6.10352e-05H162.545V18.5443H160.333V15.7272L160.625 16.1191C160.171 16.9847 159.507 17.6543 158.631 18.1279C157.773 18.6015 156.808 18.8383 155.739 18.8383ZM155.933 16.6336C156.76 16.6336 157.497 16.4294 158.145 16.0211C158.793 15.6128 159.304 15.0576 159.677 14.3553C160.066 13.6367 160.26 12.8365 160.26 11.9546C160.26 11.0564 160.066 10.2562 159.677 9.55391C159.304 8.83533 158.793 8.27189 158.145 7.86361C157.497 7.45533 156.76 7.25118 155.933 7.25118C155.123 7.25118 154.386 7.46349 153.721 7.88811C153.073 8.29639 152.563 8.85166 152.19 9.55391C151.817 10.2398 151.631 11.0401 151.631 11.9546C151.631 12.8365 151.817 13.6367 152.19 14.3553C152.563 15.0576 153.073 15.6128 153.721 16.0211C154.37 16.4294 155.107 16.6336 155.933 16.6336Z" fill="#1C1F2A"></path>
  <path d="M135.683 18.5443V5.3404H137.895V7.91259L137.531 7.69212C137.855 6.85922 138.373 6.21413 139.086 5.75685C139.816 5.28325 140.666 5.04644 141.639 5.04644C142.579 5.04644 143.413 5.25875 144.142 5.68336C144.888 6.10798 145.471 6.69591 145.893 7.44715C146.33 8.19839 146.549 9.04762 146.549 9.99484V18.5443H144.264V10.7298C144.264 9.99484 144.134 9.37425 143.875 8.86798C143.616 8.3617 143.243 7.96975 142.757 7.69212C142.287 7.39816 141.744 7.25117 141.128 7.25117C140.512 7.25117 139.961 7.39816 139.475 7.69212C139.005 7.96975 138.633 8.36987 138.357 8.89248C138.082 9.39875 137.944 10.0112 137.944 10.7298V18.5443H135.683Z" fill="#1C1F2A"></path>
  <path d="M125.542 18.8383C124.684 18.8383 123.922 18.6831 123.257 18.3728C122.609 18.0462 122.099 17.6053 121.726 17.05C121.353 16.4784 121.167 15.8251 121.167 15.0902C121.167 14.388 121.313 13.7592 121.605 13.204C121.912 12.6324 122.382 12.1506 123.014 11.7586C123.663 11.3667 124.473 11.089 125.445 10.9257L130.307 10.1173V12.0281L125.956 12.763C125.113 12.91 124.497 13.1795 124.108 13.5714C123.736 13.9634 123.549 14.4451 123.549 15.0167C123.549 15.5557 123.76 16.0048 124.181 16.3641C124.619 16.7234 125.162 16.903 125.81 16.903C126.636 16.903 127.349 16.7315 127.949 16.3886C128.565 16.0293 129.043 15.5475 129.383 14.9432C129.739 14.339 129.918 13.6694 129.918 12.9345V9.57839C129.918 8.85981 129.65 8.28005 129.116 7.8391C128.597 7.38182 127.908 7.15318 127.049 7.15318C126.304 7.15318 125.64 7.34916 125.056 7.74111C124.489 8.11673 124.068 8.62301 123.792 9.25993L121.823 8.23105C122.066 7.62679 122.455 7.08786 122.99 6.61425C123.525 6.12431 124.149 5.74052 124.862 5.46289C125.575 5.18526 126.32 5.04644 127.098 5.04644C128.103 5.04644 128.986 5.24242 129.748 5.63437C130.509 6.00999 131.101 6.54076 131.522 7.22668C131.96 7.89626 132.178 8.68017 132.178 9.57839V18.5443H129.966V16.0456L130.38 16.1926C130.104 16.7152 129.731 17.1725 129.261 17.5644C128.791 17.9564 128.241 18.2667 127.609 18.4953C126.977 18.724 126.288 18.8383 125.542 18.8383Z" fill="#1C1F2A"></path>
  <path d="M115.933 18.5443V6.10352e-05H118.194V18.5443H115.933Z" fill="#1C1F2A"></path>
  <path d="M107.031 18.8383C105.767 18.8383 104.64 18.5361 103.652 17.9319C102.663 17.3276 101.886 16.5029 101.318 15.4577C100.751 14.3961 100.468 13.2121 100.468 11.9056C100.468 10.5828 100.743 9.40691 101.294 8.37804C101.861 7.34916 102.623 6.54076 103.579 5.95283C104.551 5.34857 105.637 5.04644 106.836 5.04644C107.809 5.04644 108.667 5.22608 109.413 5.58537C110.174 5.92833 110.815 6.40194 111.333 7.0062C111.868 7.59413 112.273 8.27188 112.548 9.03946C112.84 9.7907 112.986 10.5746 112.986 11.3912C112.986 11.5708 112.97 11.775 112.937 12.0036C112.921 12.2159 112.897 12.42 112.864 12.616H102.121V10.6563H111.552L110.482 11.5382C110.628 10.6889 110.547 9.92952 110.239 9.25993C109.931 8.59035 109.478 8.05958 108.878 7.66762C108.278 7.27567 107.598 7.07969 106.836 7.07969C106.075 7.07969 105.378 7.27567 104.746 7.66762C104.114 8.05958 103.62 8.62301 103.263 9.35792C102.923 10.0765 102.785 10.9339 102.85 11.9301C102.785 12.8937 102.931 13.7429 103.287 14.4778C103.66 15.1964 104.179 15.7598 104.843 16.1681C105.524 16.56 106.261 16.756 107.055 16.756C107.93 16.756 108.667 16.5519 109.267 16.1436C109.867 15.7353 110.353 15.2127 110.725 14.5758L112.621 15.5557C112.362 16.1599 111.957 16.7152 111.406 17.2215C110.871 17.7114 110.231 18.1034 109.486 18.3973C108.756 18.6913 107.938 18.8383 107.031 18.8383Z" fill="#1C1F2A"></path>
  <path d="M92.433 18.8383C91.1528 18.8383 90.0104 18.5361 89.0057 17.9319C88.0172 17.3276 87.2393 16.5029 86.6722 15.4577C86.105 14.4125 85.8214 13.2366 85.8214 11.9301C85.8214 10.6073 86.105 9.43141 86.6722 8.40253C87.2393 7.37366 88.0172 6.55709 89.0057 5.95283C90.0104 5.34857 91.1528 5.04644 92.433 5.04644C93.2919 5.04644 94.094 5.20159 94.8395 5.51188C95.5849 5.82218 96.2412 6.23863 96.8084 6.76123C97.3756 7.28384 97.7888 7.89626 98.0481 8.59851L96.0305 9.57839C95.7226 8.89248 95.2527 8.33721 94.6207 7.91259C93.9887 7.47165 93.2595 7.25117 92.433 7.25117C91.639 7.25117 90.9179 7.45532 90.2697 7.8636C89.6377 8.27188 89.1353 8.82715 88.7626 9.5294C88.3899 10.2316 88.2035 11.04 88.2035 11.9546C88.2035 12.8365 88.3899 13.6367 88.7626 14.3553C89.1353 15.0576 89.6377 15.6128 90.2697 16.0211C90.9179 16.4294 91.639 16.6335 92.433 16.6335C93.2595 16.6335 93.9887 16.4212 94.6207 15.9966C95.2527 15.5557 95.7226 14.9759 96.0305 14.2573L98.0481 15.2862C97.7888 15.9721 97.3756 16.5845 96.8084 17.1235C96.2412 17.6461 95.5849 18.0625 94.8395 18.3728C94.094 18.6831 93.2919 18.8383 92.433 18.8383Z" fill="#1C1F2A"></path>
  <path d="M77.858 18.5443V5.34042H80.07V7.76563L79.8269 7.42267C80.1348 6.67143 80.6048 6.11616 81.2368 5.75687C81.8688 5.38125 82.6385 5.19344 83.546 5.19344H84.3481V7.34918H83.2057C82.282 7.34918 81.5365 7.64314 80.9694 8.23107C80.4022 8.80267 80.1186 9.61924 80.1186 10.6808V18.5443H77.858Z" fill="#1C1F2A"></path>
  <path d="M67.717 18.8383C66.8582 18.8383 66.0965 18.6831 65.4321 18.3728C64.7839 18.0462 64.2735 17.6053 63.9007 17.05C63.528 16.4784 63.3417 15.8251 63.3417 15.0902C63.3417 14.388 63.4875 13.7592 63.7792 13.204C64.0871 12.6324 64.5571 12.1506 65.189 11.7586C65.8372 11.3667 66.6475 11.089 67.6198 10.9257L72.4813 10.1173V12.0281L68.1303 12.763C67.2876 12.91 66.6718 13.1795 66.2829 13.5714C65.9102 13.9634 65.7238 14.4451 65.7238 15.0167C65.7238 15.5557 65.9345 16.0048 66.3558 16.3641C66.7933 16.7234 67.3362 16.903 67.9844 16.903C68.8109 16.903 69.5239 16.7315 70.1235 16.3886C70.7393 16.0293 71.2173 15.5475 71.5576 14.9432C71.9141 14.339 72.0924 13.6694 72.0924 12.9345V9.57839C72.0924 8.85981 71.825 8.28005 71.2902 7.8391C70.7717 7.38182 70.083 7.15318 69.2241 7.15318C68.4787 7.15318 67.8143 7.34916 67.2309 7.74111C66.6637 8.11673 66.2424 8.62301 65.9669 9.25993L63.998 8.23105C64.2411 7.62679 64.63 7.08786 65.1647 6.61425C65.6995 6.12431 66.3234 5.74052 67.0364 5.46289C67.7494 5.18526 68.4949 5.04644 69.2727 5.04644C70.2774 5.04644 71.1606 5.24242 71.9222 5.63437C72.6839 6.00999 73.2753 6.54076 73.6967 7.22668C74.1342 7.89626 74.353 8.68017 74.353 9.57839V18.5443H72.141V16.0456L72.5542 16.1926C72.2787 16.7152 71.906 17.1725 71.4361 17.5644C70.9661 17.9564 70.4152 18.2667 69.7832 18.4953C69.1512 18.724 68.4625 18.8383 67.717 18.8383Z" fill="#1C1F2A"></path>
  <path d="M47.6161 23.4437V5.3404H49.8281V8.18206L49.5364 7.61863C50.0225 6.83472 50.6869 6.21413 51.5296 5.75685C52.3722 5.28325 53.3364 5.04644 54.4222 5.04644C55.6538 5.04644 56.7557 5.34857 57.728 5.95283C58.7165 6.55709 59.4943 7.38182 60.0615 8.42703C60.6287 9.45591 60.9123 10.6318 60.9123 11.9546C60.9123 13.2448 60.6287 14.4125 60.0615 15.4577C59.4943 16.5029 58.7165 17.3276 57.728 17.9319C56.7557 18.5361 55.6457 18.8383 54.3979 18.8383C53.3445 18.8383 52.3803 18.6015 51.5053 18.1279C50.6464 17.6542 49.982 16.9847 49.5121 16.1191L49.8767 15.7271V23.4437H47.6161ZM54.2277 16.6335C55.0542 16.6335 55.7915 16.4294 56.4397 16.0211C57.0879 15.6128 57.5903 15.0576 57.9468 14.3553C58.3195 13.6367 58.5058 12.8365 58.5058 11.9546C58.5058 11.04 58.3195 10.2398 57.9468 9.5539C57.5903 8.85165 57.0879 8.29638 56.4397 7.8881C55.7915 7.46348 55.0542 7.25117 54.2277 7.25117C53.4013 7.25117 52.6558 7.45532 51.9914 7.8636C51.3432 8.27188 50.8247 8.83532 50.4357 9.5539C50.063 10.2561 49.8767 11.0564 49.8767 11.9546C49.8767 12.8365 50.063 13.6367 50.4357 14.3553C50.8247 15.0576 51.3432 15.6128 51.9914 16.0211C52.6558 16.4294 53.4013 16.6335 54.2277 16.6335Z" fill="#1C1F2A"></path>
  <path d="M101.573 44.0001C100.062 44.0001 98.681 43.6668 97.4309 43.0004C96.1995 42.334 95.2106 41.4244 94.4643 40.2716C93.7367 39.1009 93.3728 37.777 93.3728 36.3001C93.3728 34.8051 93.7367 33.4812 94.4643 32.3285C95.2106 31.1757 96.1995 30.2661 97.4309 29.5997C98.681 28.9333 100.062 28.6001 101.573 28.6001C103.084 28.6001 104.456 28.9333 105.687 29.5997C106.919 30.2661 107.898 31.1757 108.626 32.3285C109.372 33.4812 109.745 34.8051 109.745 36.3001C109.745 37.777 109.372 39.1009 108.626 40.2716C107.898 41.4244 106.919 42.334 105.687 43.0004C104.456 43.6668 103.084 44.0001 101.573 44.0001ZM101.573 40.3527C102.338 40.3527 103 40.1816 103.56 39.8394C104.138 39.4971 104.586 39.0198 104.903 38.4074C105.239 37.795 105.407 37.0926 105.407 36.3001C105.407 35.5075 105.239 34.8141 104.903 34.2197C104.586 33.6073 104.138 33.13 103.56 32.7878C103 32.4275 102.338 32.2474 101.573 32.2474C100.808 32.2474 100.136 32.4275 99.5579 32.7878C98.9795 33.13 98.5224 33.6073 98.1866 34.2197C97.8694 34.8141 97.7108 35.5075 97.7108 36.3001C97.7108 37.0926 97.8694 37.795 98.1866 38.4074C98.5224 39.0198 98.9795 39.4971 99.5579 39.8394C100.136 40.1816 100.808 40.3527 101.573 40.3527Z" fill="#1C1F2A"></path>
  <path d="M83.1968 44.0001C81.8037 44.0001 80.5586 43.6558 79.4615 42.9673C78.3644 42.2788 77.4937 41.3457 76.8494 40.1679C76.2225 38.9902 75.909 37.6857 75.909 36.2543C75.909 34.8048 76.2312 33.5002 76.8755 32.3406C77.5198 31.1629 78.3905 30.2298 79.4876 29.5413C80.5847 28.8528 81.8124 28.5085 83.1707 28.5085C84.2155 28.5085 85.1385 28.7169 85.9395 29.1336C86.758 29.5322 87.4023 30.103 87.8725 30.8458L87.2717 31.6612V23.1001H91.1898V43.6739H87.5329V40.9561L87.8986 41.7986C87.411 42.5234 86.7493 43.076 85.9134 43.4565C85.0775 43.8189 84.172 44.0001 83.1968 44.0001ZM83.667 40.331C84.381 40.331 85.0079 40.1589 85.5477 39.8146C86.0875 39.4704 86.5055 38.9902 86.8015 38.3742C87.115 37.7581 87.2717 37.0515 87.2717 36.2543C87.2717 35.4571 87.115 34.7504 86.8015 34.1344C86.5055 33.5184 86.0875 33.0382 85.5477 32.694C85.0079 32.3497 84.381 32.1776 83.667 32.1776C82.953 32.1776 82.3087 32.3588 81.734 32.7211C81.1768 33.0654 80.7414 33.5455 80.4279 34.1616C80.1145 34.7595 79.9578 35.4571 79.9578 36.2543C79.9578 37.0515 80.1145 37.7581 80.4279 38.3742C80.7414 38.9902 81.1768 39.4704 81.734 39.8146C82.3087 40.1589 82.953 40.331 83.667 40.331Z" fill="#1C1F2A"></path>
  <path d="M64.959 44.0001C63.8064 44.0001 62.8197 43.7425 61.9989 43.2273C61.1956 42.6937 60.5844 41.9578 60.1652 41.0194C59.7461 40.0811 59.5365 38.9863 59.5365 37.7352V28.6001H63.4659V37.404C63.4659 37.9744 63.5707 38.4803 63.7803 38.9219C64.0073 39.3451 64.3216 39.6763 64.7233 39.9155C65.125 40.1547 65.579 40.2743 66.0855 40.2743C66.6094 40.2743 67.0634 40.1547 67.4476 39.9155C67.8493 39.6763 68.1549 39.3451 68.3645 38.9219C68.5915 38.4803 68.705 37.9744 68.705 37.404V28.6001H72.6344V43.6689H68.967V40.6882L69.1766 41.3506C68.8447 42.2522 68.3034 42.9237 67.5524 43.3653C66.8189 43.7885 65.9545 44.0001 64.959 44.0001Z" fill="#1C1F2A"></path>
  <path d="M55.4951 44.0001C53.7428 44.0001 52.3799 43.5114 51.4064 42.5339C50.4506 41.5381 49.9727 40.1549 49.9727 38.3845V32.3264H47.5302V28.7302H47.6629C48.4063 28.7302 48.9727 28.5366 49.3621 28.1493C49.7692 27.762 49.9727 27.1811 49.9727 26.4066V25.3001H53.9552V28.7302H57.3536V32.3264H53.9552V38.1079C53.9552 38.6243 54.0437 39.0577 54.2207 39.4081C54.3977 39.74 54.672 39.989 55.0437 40.1549C55.4154 40.3209 55.8756 40.4039 56.4243 40.4039C56.5482 40.4039 56.6898 40.3947 56.8491 40.3762C57.0084 40.3578 57.1766 40.3394 57.3536 40.3209V43.8341C57.0881 43.871 56.7872 43.9078 56.4509 43.9447C56.1146 43.9816 55.796 44.0001 55.4951 44.0001Z" fill="#1C1F2A"></path>
  <path fill-rule="evenodd" clip-rule="evenodd" d="M25.5691 7.9572C21.5606 9.816 17.5519 11.6761 13.5433 13.5374C12.4703 14.0353 12.5615 14.566 13.2815 15.3675C15.3737 17.6991 17.4639 20.0326 19.5522 22.368C19.9274 22.7873 20.2071 23.3164 20.3913 23.9554C20.8128 25.873 19.9992 27.6581 18.1751 28.3981C16.896 28.7671 15.7684 28.5932 14.7924 27.8763C14.5422 27.6925 14.1417 27.2925 13.5907 26.6763C11.7102 24.5739 9.82716 22.4739 7.9415 20.3763C7.8962 20.3259 7.8509 20.2753 7.80553 20.2247C6.75177 19.0482 5.6659 17.8358 3.92154 18.1103C3.4771 18.1798 2.98046 18.419 2.50361 18.6486C2.33071 18.7319 2.16041 18.8139 1.99615 18.8861C0.587151 19.4251 -0.0741679 20.7669 0.00659068 22.2311C0.189788 25.5501 0.377289 28.8691 0.569097 32.1879C0.661167 33.7851 1.02676 34.5874 2.16441 35.643C4.62107 37.9209 7.06097 40.2167 9.48411 42.5302C9.99224 43.0158 10.3904 43.3397 10.6787 43.502C11.9613 44.225 13.1071 44.0377 14.4108 43.4318C17.7068 41.8999 21.003 40.3701 24.2995 38.8424C25.0482 38.4949 25.5444 38.2255 25.7881 38.034C26.9716 37.1057 27.3915 35.5522 27.0331 34.0833C26.4058 31.5141 25.7721 28.9526 25.1319 26.3988C24.7141 24.7147 24.2972 23.0352 23.8812 21.3603C23.7075 20.6613 23.6177 20.1556 23.612 19.8434C23.5909 18.7345 24.0458 17.6296 24.8932 16.9118C25.1153 16.7234 25.4654 16.5183 25.9434 16.2965C28.1544 15.2725 30.3638 14.2472 32.5718 13.2208C32.6496 13.1851 32.7267 13.1499 32.8033 13.115L32.805 13.1142C34.2706 12.4451 35.5008 11.8836 35.9633 10.1897C36.7006 7.48977 34.3883 4.75407 31.6272 5.27411C31.3246 5.33109 30.8783 5.49584 30.2883 5.76836C28.7147 6.49541 27.1416 7.22502 25.5691 7.9572Z" fill="#1D49FD"></path>
  <path d="M161.117 36.2998C161.117 32.0472 164.538 28.5998 168.758 28.5998C172.977 28.5998 176.398 32.0472 176.398 36.2998C176.398 40.5524 172.977 43.9998 168.758 43.9998C164.538 43.9998 161.117 40.5524 161.117 36.2998Z" fill="#1D49FD"></path>
  <path d="M115.275 36.2998C115.275 32.0472 118.695 28.5998 122.915 28.5998H146.928C151.147 28.5998 154.568 32.0472 154.568 36.2998C154.568 40.5524 151.147 43.9998 146.928 43.9998H122.915C118.695 43.9998 115.275 40.5524 115.275 36.2998Z" fill="#1D49FD"></path>
</svg>
